<svg id="Слой_2" data-name="Слой 2" xmlns="http://www.w3.org/2000/svg" viewBox="0 0 1024 716.8"><title>Безымянный-1</title><path d="M371.92,563.2a128,128,0,0,1-102.41,51.2H128A128,128,0,0,1,0,486.4V128A128,128,0,0,1,104.54,2.14,128,128,0,0,1,230.4-102.4H793.6A128,128,0,0,1,919.46,2.14,128,128,0,0,1,1024,128V486.4a128,128,0,0,1-128,128H754.49a128,128,0,0,1-102.41-51.2ZM400.68,512H623.32a113.35,113.35,0,0,0-94.78-51.2H495.46A113.35,113.35,0,0,0,400.68,512ZM158,0H866A76.83,76.83,0,0,0,793.6-51.2H230.4A76.83,76.83,0,0,0,158,0ZM348.3,500.55A164.53,164.53,0,0,1,495.46,409.6h33.08A164.53,164.53,0,0,1,675.7,500.55l10.09,20.2a76.82,76.82,0,0,0,68.7,42.45H896a76.79,76.79,0,0,0,76.8-76.8V128A76.79,76.79,0,0,0,896,51.2H128A76.79,76.79,0,0,0,51.2,128V486.4A76.79,76.79,0,0,0,128,563.2H269.51a76.82,76.82,0,0,0,68.7-42.45ZM281.6,409.6a128,128,0,1,1,128-128A128,128,0,0,1,281.6,409.6Zm0-51.2a76.8,76.8,0,1,0-76.8-76.8A76.79,76.79,0,0,0,281.6,358.4Zm460.8,51.2a128,128,0,1,1,128-128A128,128,0,0,1,742.4,409.6Zm0-51.2a76.8,76.8,0,1,0-76.8-76.8A76.79,76.79,0,0,0,742.4,358.4Z" transform="translate(0 102.4)"/></svg>