<svg id="Cardboard" xmlns="http://www.w3.org/2000/svg" viewBox="0 0 1024 614.49"><title>Cardboard</title><path d="M920.45,207.19c-8.21-.71-16.37-1.56-24.65-1.68-7.47-.12-14.93-.45-22.39-.68h-2.48a4.72,4.72,0,0,1-.77.06,5.31,5.31,0,0,1-.81-.07h-.42l-.21,0H868a5.11,5.11,0,0,1-1,.1,5.8,5.8,0,0,1-1-.08l0,0H158v0H149.8a5.5,5.5,0,0,1-1.75,0,5.9,5.9,0,0,1-.87.07,5.31,5.31,0,0,1-.91-.08H146a4.81,4.81,0,0,1-.77-.06c-2.82.07-5.64.15-8.47.21a6.87,6.87,0,0,1-.8-.05c-8.85.37-17.71,1-26.52,1.41a5.57,5.57,0,0,1-1.33.16h-.07a31.81,31.81,0,0,1-3.51.47v0A128,128,0,0,0,0,332.85v358.4a128,128,0,0,0,128,128H269.51a128,128,0,0,0,102.41-51.2H652.08a128,128,0,0,0,102.41,51.2H896a128,128,0,0,0,128-128V332.85A128,128,0,0,0,920.45,207.19ZM400.68,716.85a113.32,113.32,0,0,1,94.78-51.2h33.08a113.32,113.32,0,0,1,94.78,51.2Zm572.12-25.6a76.8,76.8,0,0,1-76.8,76.8H754.49a76.82,76.82,0,0,1-68.7-42.46L675.7,705.4a164.53,164.53,0,0,0-147.16-90.95H495.46A164.53,164.53,0,0,0,348.3,705.4l-10.09,20.19a76.82,76.82,0,0,1-68.7,42.46H128a76.8,76.8,0,0,1-76.8-76.8V332.85a76.79,76.79,0,0,1,76.8-76.8H896a76.79,76.79,0,0,1,76.8,76.8Z" transform="translate(0 -204.75)"/><path d="M281.6,358.45a128,128,0,1,0,128,128A128,128,0,0,0,281.6,358.45Zm0,204.8a76.8,76.8,0,1,1,76.8-76.8A76.8,76.8,0,0,1,281.6,563.25Z" transform="translate(0 -204.75)"/><path d="M742.4,358.45a128,128,0,1,0,128,128A128,128,0,0,0,742.4,358.45Zm0,204.8a76.8,76.8,0,1,1,76.8-76.8A76.8,76.8,0,0,1,742.4,563.25Z" transform="translate(0 -204.75)"/></svg>